<svg width="154" height="20" viewBox="0 0 154 20" fill="none" xmlns="http://www.w3.org/2000/svg">
<path d="M11.784 15.304C11.784 15.72 11.992 15.928 12.408 15.928C12.84 15.928 13.2 15.848 13.488 15.688L13.368 18.4C12.6 19.024 11.736 19.336 10.776 19.336C9.016 19.336 8.04 18.696 7.848 17.416C7.048 18.696 5.872 19.336 4.32 19.336C1.696 19.336 0.384 18.208 0.384 15.952C0.384 15.568 0.424 15.144 0.504 14.68L1.008 11.872C1.264 10.432 1.848 9.288 2.76 8.44C3.688 7.576 4.968 7.144 6.6 7.144C7.608 7.144 8.408 7.36 9 7.792L10.224 0.783998H14.328L11.808 15.016C11.792 15.112 11.784 15.208 11.784 15.304ZM4.68 14.152C4.648 14.296 4.632 14.496 4.632 14.752C4.632 15.008 4.752 15.264 4.992 15.52C5.232 15.76 5.632 15.88 6.192 15.88C6.768 15.88 7.264 15.656 7.68 15.208L8.4 11.176C8.224 10.776 7.808 10.576 7.152 10.576C5.92 10.576 5.2 11.168 4.992 12.352L4.68 14.152ZM26.5965 15.304C26.5965 15.72 26.8045 15.928 27.2205 15.928C27.6525 15.928 28.0125 15.848 28.3005 15.688L28.1805 18.4C27.4125 19.024 26.5485 19.336 25.5885 19.336C23.8285 19.336 22.8525 18.696 22.6605 17.416C21.8605 18.696 20.6845 19.336 19.1325 19.336C16.5085 19.336 15.1965 18.208 15.1965 15.952C15.1965 15.568 15.2365 15.144 15.3165 14.68L15.8205 11.872C16.0765 10.432 16.6605 9.288 17.5725 8.44C18.5005 7.576 19.7005 7.144 21.1725 7.144C22.6605 7.144 23.6685 7.488 24.1965 8.176L24.3165 7.456H27.9645L26.6205 15.016C26.6045 15.112 26.5965 15.208 26.5965 15.304ZM19.4925 14.152C19.4605 14.296 19.4445 14.496 19.4445 14.752C19.4445 15.008 19.5645 15.264 19.8045 15.52C20.0445 15.76 20.4445 15.88 21.0045 15.88C21.5805 15.88 22.0765 15.656 22.4925 15.208L23.2125 11.176C23.0365 10.776 22.6205 10.576 21.9645 10.576C20.7325 10.576 20.0125 11.168 19.8045 12.352L19.4925 14.152ZM41.946 7.456C42.17 8.128 42.282 9.024 42.282 10.144C42.282 11.248 42.146 12.312 41.874 13.336C41.602 14.36 41.186 15.336 40.626 16.264C40.082 17.176 39.314 17.92 38.322 18.496C37.346 19.056 36.218 19.336 34.938 19.336C32.938 19.336 31.554 18.928 30.786 18.112C30.274 17.568 30.018 16.736 30.018 15.616C30.018 15.088 30.082 14.488 30.21 13.816L31.338 7.456H35.418L34.29 13.84C34.242 14.08 34.218 14.296 34.218 14.488C34.218 15.4 34.69 15.856 35.634 15.856C37.298 15.856 38.13 14.112 38.13 10.624C38.13 9.808 38.066 8.904 37.938 7.912L37.866 7.456H41.946ZM48.6936 15.928C49.0616 15.928 49.3896 15.848 49.6776 15.688L49.5576 18.4C48.8056 19.024 47.9496 19.336 46.9896 19.336C45.5336 19.336 44.5896 19 44.1576 18.328C43.8696 17.88 43.7256 17.408 43.7256 16.912C43.7256 16.4 43.7576 15.952 43.8216 15.568L45.2616 7.456H49.3416L47.9976 15.016C47.9816 15.112 47.9736 15.2 47.9736 15.28C47.9736 15.712 48.2136 15.928 48.6936 15.928ZM45.7416 3.544C45.7416 2.52 45.9656 1.776 46.4136 1.312C46.8776 0.831999 47.5896 0.592 48.5496 0.592C49.8936 0.592 50.5656 1.184 50.5656 2.368C50.5656 3.376 50.3336 4.112 49.8696 4.576C49.4216 5.04 48.7096 5.272 47.7336 5.272C46.4056 5.272 45.7416 4.696 45.7416 3.544ZM62.409 15.304C62.409 15.72 62.617 15.928 63.033 15.928C63.465 15.928 63.825 15.848 64.113 15.688L63.993 18.4C63.225 19.024 62.361 19.336 61.401 19.336C59.641 19.336 58.665 18.696 58.473 17.416C57.673 18.696 56.497 19.336 54.945 19.336C52.321 19.336 51.009 18.208 51.009 15.952C51.009 15.568 51.049 15.144 51.129 14.68L51.633 11.872C51.889 10.432 52.473 9.288 53.385 8.44C54.313 7.576 55.593 7.144 57.225 7.144C58.233 7.144 59.033 7.36 59.625 7.792L60.849 0.783998H64.953L62.433 15.016C62.417 15.112 62.409 15.208 62.409 15.304ZM55.305 14.152C55.273 14.296 55.257 14.496 55.257 14.752C55.257 15.008 55.377 15.264 55.617 15.52C55.857 15.76 56.257 15.88 56.817 15.88C57.393 15.88 57.889 15.656 58.305 15.208L59.025 11.176C58.849 10.776 58.433 10.576 57.777 10.576C56.545 10.576 55.825 11.168 55.617 12.352L55.305 14.152ZM70.5233 15.304C70.5233 15.72 70.7313 15.928 71.1473 15.928C71.5793 15.928 71.9393 15.848 72.2273 15.688L72.1073 18.4C71.3393 19.024 70.4753 19.336 69.5153 19.336C68.0593 19.336 67.1153 19 66.6833 18.328C66.4113 17.896 66.2753 17.424 66.2753 16.912C66.2753 16.4 66.3073 15.952 66.3713 15.568L68.9873 0.783998H73.0673L70.5473 15.016C70.5313 15.112 70.5233 15.208 70.5233 15.304ZM78.5713 19.336C75.2433 19.336 73.5793 18.184 73.5793 15.88C73.5793 15.56 73.6113 15.216 73.6753 14.848L74.1793 11.872C74.4513 10.336 75.1553 9.16 76.2913 8.344C77.4433 7.512 78.9633 7.096 80.8513 7.096C84.0673 7.096 85.6753 8.312 85.6753 10.744C85.6753 11.096 85.6433 11.48 85.5793 11.896L85.2913 13.6H77.9713L77.8753 14.152C77.8433 14.344 77.8273 14.52 77.8273 14.68C77.8273 15.56 78.3473 16 79.3873 16C79.7713 16 80.0993 15.88 80.3713 15.64C80.6433 15.4 80.8033 15.12 80.8513 14.8L84.8353 14.848C84.3073 17.84 82.2193 19.336 78.5713 19.336ZM81.4513 12.136C81.5153 11.864 81.5473 11.616 81.5473 11.392C81.5473 11.152 81.4433 10.912 81.2353 10.672C81.0273 10.432 80.6913 10.312 80.2273 10.312C79.7793 10.312 79.3633 10.464 78.9793 10.768C78.6113 11.072 78.3553 11.528 78.2113 12.136H81.4513ZM91.8135 19.336C88.4855 19.336 86.8215 18.184 86.8215 15.88C86.8215 15.56 86.8535 15.216 86.9175 14.848L87.4215 11.872C87.6775 10.336 88.3735 9.16 89.5095 8.344C90.6615 7.528 92.1175 7.112 93.8775 7.096C97.2855 7.096 98.9895 8.28 98.9895 10.648C98.9895 11.16 98.9255 11.624 98.7975 12.04C98.6855 12.44 98.5655 12.712 98.4375 12.856L98.2455 13.096H94.1655C94.5655 12.744 94.7655 12.328 94.7655 11.848C94.7655 10.984 94.3335 10.552 93.4695 10.552C92.9575 10.552 92.5175 10.704 92.1495 11.008C91.7815 11.312 91.5415 11.776 91.4295 12.4L91.1175 14.152C91.0855 14.312 91.0695 14.464 91.0695 14.608C91.0695 15.456 91.5975 15.88 92.6535 15.88C93.0055 15.88 93.3175 15.768 93.5895 15.544C93.8775 15.32 94.0455 15.072 94.0935 14.8L98.0775 14.848C97.5495 17.84 95.4615 19.336 91.8135 19.336ZM107.337 7.12C109.065 7.12 110.369 7.496 111.249 8.248C111.937 8.84 112.281 9.664 112.281 10.72C112.281 11.072 112.241 11.456 112.161 11.872L111.657 14.68C111.353 16.376 110.641 17.576 109.521 18.28C108.417 18.984 106.937 19.336 105.081 19.336C103.225 19.336 101.865 18.984 101.001 18.28C100.361 17.752 100.041 16.96 100.041 15.904C100.041 15.536 100.081 15.128 100.161 14.68L100.665 11.872C101.225 8.704 103.449 7.12 107.337 7.12ZM107.985 12.352C108.017 12.192 108.033 11.992 108.033 11.752C108.033 11.496 107.929 11.216 107.721 10.912C107.513 10.608 107.145 10.456 106.617 10.456C106.105 10.456 105.673 10.632 105.321 10.984C104.969 11.32 104.745 11.776 104.649 12.352L104.337 14.152C104.305 14.312 104.289 14.52 104.289 14.776C104.289 15.016 104.393 15.28 104.601 15.568C104.809 15.856 105.169 16 105.681 16C106.209 16 106.649 15.824 107.001 15.472C107.353 15.104 107.577 14.664 107.673 14.152L107.985 12.352ZM124.964 15.304C124.964 15.72 125.172 15.928 125.588 15.928C126.02 15.928 126.38 15.848 126.668 15.688L126.548 18.4C125.78 19.024 124.916 19.336 123.956 19.336C122.196 19.336 121.22 18.696 121.028 17.416C120.228 18.696 119.052 19.336 117.5 19.336C114.876 19.336 113.564 18.208 113.564 15.952C113.564 15.568 113.604 15.144 113.684 14.68L114.188 11.872C114.444 10.432 115.028 9.288 115.94 8.44C116.868 7.576 118.148 7.144 119.78 7.144C120.788 7.144 121.588 7.36 122.18 7.792L123.404 0.783998H127.508L124.988 15.016C124.972 15.112 124.964 15.208 124.964 15.304ZM117.86 14.152C117.828 14.296 117.812 14.496 117.812 14.752C117.812 15.008 117.932 15.264 118.172 15.52C118.412 15.76 118.812 15.88 119.372 15.88C119.948 15.88 120.444 15.656 120.86 15.208L121.58 11.176C121.404 10.776 120.988 10.576 120.332 10.576C119.1 10.576 118.38 11.168 118.172 12.352L117.86 14.152ZM133.462 19.336C130.134 19.336 128.47 18.184 128.47 15.88C128.47 15.56 128.502 15.216 128.566 14.848L129.07 11.872C129.342 10.336 130.046 9.16 131.182 8.344C132.334 7.512 133.854 7.096 135.742 7.096C138.958 7.096 140.566 8.312 140.566 10.744C140.566 11.096 140.534 11.48 140.47 11.896L140.182 13.6H132.862L132.766 14.152C132.734 14.344 132.718 14.52 132.718 14.68C132.718 15.56 133.238 16 134.278 16C134.662 16 134.99 15.88 135.262 15.64C135.534 15.4 135.694 15.12 135.742 14.8L139.726 14.848C139.198 17.84 137.11 19.336 133.462 19.336ZM136.342 12.136C136.406 11.864 136.438 11.616 136.438 11.392C136.438 11.152 136.334 10.912 136.126 10.672C135.918 10.432 135.582 10.312 135.118 10.312C134.67 10.312 134.254 10.464 133.87 10.768C133.502 11.072 133.246 11.528 133.102 12.136H136.342ZM153.856 9.952C153.856 10.48 153.696 10.968 153.376 11.416H149.44C149.568 11.32 149.632 11.16 149.632 10.936C149.632 10.712 149.504 10.536 149.248 10.408C148.992 10.264 148.664 10.192 148.264 10.192C147.064 10.192 146.464 10.56 146.464 11.296C146.464 11.584 146.688 11.792 147.136 11.92C147.584 12.048 148.128 12.152 148.768 12.232C149.408 12.312 150.048 12.432 150.688 12.592C151.328 12.736 151.872 13.032 152.32 13.48C152.768 13.928 152.992 14.528 152.992 15.28C152.992 16.608 152.456 17.616 151.384 18.304C150.328 18.992 148.784 19.336 146.752 19.336C144.72 19.336 143.296 19.008 142.48 18.352C141.84 17.84 141.52 17.136 141.52 16.24C141.52 15.984 141.544 15.72 141.592 15.448L145.6 15.4C145.568 15.624 145.696 15.824 145.984 16C146.288 16.16 146.728 16.24 147.304 16.24C147.88 16.24 148.296 16.184 148.552 16.072C148.808 15.944 148.936 15.712 148.936 15.376C148.936 15.152 148.712 15 148.264 14.92C147.816 14.824 147.264 14.744 146.608 14.68C145.968 14.616 145.32 14.512 144.664 14.368C144.024 14.224 143.48 13.92 143.032 13.456C142.584 12.992 142.36 12.384 142.36 11.632C142.36 10.176 142.92 9.056 144.04 8.272C145.176 7.488 146.808 7.096 148.936 7.096C152.216 7.096 153.856 8.048 153.856 9.952Z" fill="white"/>
</svg>
